<svg width="198" height="16" viewBox="0 0 198 16" xmlns="http://www.w3.org/2000/svg" xmlns:xlink="http://www.w3.org/1999/xlink">
    <defs>
        <path id="lfm8yapg1a" d="M0 0h18.334v16H0z"/>
    </defs>
    <g fill="none" fill-rule="evenodd">
        <path fill="#FFF" d="M97.168 14.403h3.166V1.601h-3.166zM111.534 9.43h-.036l-5.18-7.829h-3.168v12.802h3.169V6.558h.032l5.183 7.845h3.166V1.601h-3.166zM152.462 4.419h2.68v9.985h3.166V4.419h2.68V1.6h-8.526zM174.15 14.403h3.168V1.601h-3.168zM180.25 14.403h7.128v-2.818h-3.962v-2.21h3.765V6.559h-3.765v-2.14h3.962V1.601h-7.128zM194.617 6.707c-1.323-.472-2.027-.877-2.027-1.591 0-.718.674-1.109 1.357-1.072 1.14.059 2.1.85 2.1.85l1.374-2.354s-1.438-1.278-3.732-1.278c-2.18 0-4.251 1.449-4.382 3.857-.125 2.387 1.79 3.402 2.925 3.844 1.102.429 2.466.716 2.466 1.691 0 .977-.953 1.25-1.643 1.241-.723-.009-1.859-.342-2.816-1.117l-1.266 2.504c.538.423 2.31 1.425 4.282 1.461 2.259.038 5.054-1.346 4.717-4.652-.195-1.926-1.995-2.897-3.355-3.384M148.207 6.707c-1.323-.472-2.027-.877-2.027-1.591 0-.718.675-1.109 1.358-1.072 1.138.059 2.098.85 2.098.85l1.376-2.354s-1.437-1.278-3.733-1.278c-2.18 0-4.251 1.449-4.382 3.857-.125 2.387 1.79 3.402 2.925 3.844 1.103.429 2.468.716 2.468 1.691 0 .977-.954 1.25-1.645 1.241-.723-.009-1.859-.342-2.816-1.117l-1.267 2.504c.543.423 2.31 1.425 4.283 1.461 2.259.038 5.055-1.346 4.717-4.652-.195-1.926-1.995-2.897-3.355-3.384M137.655 9.038c0 1.673-.564 2.786-2.147 2.786-1.586 0-2.152-1.113-2.152-2.786V1.601h-3.165v7.717c0 4.63 3.135 5.425 5.317 5.425 2.181 0 5.315-.795 5.315-5.425V1.601h-3.168v7.437zM121.242 11.585h-.562V4.419h.562c2.68 0 3.654 1.252 3.654 3.584 0 2.33-.974 3.582-3.654 3.582m.857-9.984h-4.587v12.802h4.587c3.396 0 6.096-1.916 6.096-6.4 0-4.488-2.7-6.402-6.096-6.402M166.374 7.341h-.385V4.147h.424c1.035 0 2.08.205 2.08 1.598s-1.084 1.596-2.12 1.596m5.56-1.8c0-2.733-1.969-3.94-4.377-3.94h-4.735v12.802h3.168V9.48h.031l3.033 4.924h3.497l-3.427-5.245c1.727-.323 2.81-1.852 2.81-3.618M42.151 11.6A3.602 3.602 0 0 1 38.548 8a3.603 3.603 0 0 1 7.207 0c0 1.987-1.614 3.6-3.604 3.6m0-10.426a6.827 6.827 0 0 0-6.829 6.825 6.827 6.827 0 0 0 6.83 6.824 6.827 6.827 0 0 0 6.83-6.824 6.828 6.828 0 0 0-6.83-6.825M68.004 11.6a3.6 3.6 0 1 1-.003-7.202 3.6 3.6 0 0 1 .003 7.201m0-10.425a6.827 6.827 0 0 0-6.83 6.825 6.826 6.826 0 0 0 6.83 6.824 6.825 6.825 0 1 0 0-13.649M55.075 1.597h-3.329v12.801h7.732v-2.966h-4.403zM30.502 1.597l-4.034 5.314V1.6h-3.33v12.797h3.33v-5.31l4.034 5.308h4.158l-5.096-6.397 5.096-6.402zM86.337 1.597V8.92h-.034l-5.335-7.322h-3.363v12.801h3.329V6.563h.037l5.71 7.835h2.984v-12.8z"/>
        <g>
            <mask id="r9f2smf2lb" fill="#fff">
                <use xlink:href="#lfm8yapg1a"/>
            </mask>
            <path d="M3.324 1.283C2.96.643 3.474 0 4.07 0h10.14c.84 0 1.065.793.724 1.334L13.11 4.489c-.293.587-1.025.565-1.35.024L9.997 1.44c-.49-.822-1.174-.839-1.674 0L6.59 4.43c-.243.453.135 1.122.748 1.122h10.137c.703 0 1.043.78.76 1.276l-5.027 8.696a.936.936 0 0 1-1.624.006l-1.78-3.03c-.362-.644.132-1.394.727-1.394h3.778c.566 0 .9-.588.576-1.158l-1.66-2.919c-.433-.739-1.131-.78-1.586-.031l-4.956 8.526c-.356.61-1.077.661-1.467-.004L.134 6.858c-.4-.71.161-1.306.784-1.306H4.43c.868 0 1.106.756.764 1.313l-1.815 3.15c-.27.479.158 1.098.746 1.091h3.667c.56.007.926-.507.603-1.081L3.324 1.283z" fill="#FFF" mask="url(#r9f2smf2lb)"/>
        </g>
    </g>
</svg>
